<svg xmlns="http://www.w3.org/2000/svg" width="24.676" height="18.997" viewBox="0 0 24.676 18.997"><path d="M64.87.95C68.918,2.358,72.944,3.831,77,5.21a.574.574,0,0,0,.429,0C81.481,3.824,85.5,2.363,89.546.95Q87.4,4.378,85.2,7.777c-.677-.291-1.374-.533-2.056-.812.4-.7.82-1.375,1.221-2.069-1.305.657-2.633,1.267-3.929,1.943.906.345,1.813.684,2.712,1.048A1.525,1.525,0,0,1,84.22,9.073a2.792,2.792,0,0,1-.681,1.708c-1.952,3.054-3.894,6.116-5.855,9.165a23.177,23.177,0,0,1,.014-2.415c.772-2.449,1.534-4.9,2.236-7.37.138-.367-.272-.563-.536-.692-.745-.329-1.442-.765-2.2-1.046-.773.334-1.515.739-2.273,1.106-.234.108-.565.322-.431.628.7,2.471,1.468,4.921,2.234,7.371a24,24,0,0,1,.008,2.418q-2.9-4.533-5.785-9.07a3,3,0,0,1-.739-1.82,1.541,1.541,0,0,1,1.08-1.174c.891-.363,1.8-.694,2.693-1.045-1.293-.673-2.616-1.289-3.919-1.94.4.693.824,1.371,1.218,2.069-.686.273-1.381.527-2.065.807Q67.027,4.372,64.87.95Z" transform="translate(-64.87 -0.95)"/></svg>