<svg xmlns="http://www.w3.org/2000/svg" width="77.427" height="21.808" viewBox="0 0 77.427 21.808"><g transform="translate(-639.892 -264.468)"><path d="M702.467,286.259c4.727,0,9.454-.008,14.18.012.53,0,.679-.138.67-.671-.032-1.948-.009-3.9-.014-5.846,0-.979.1-.867-.852-.867q-12.433,0-24.866.01c-.573,0-.82-.085-.8-.749q.077-2.753,0-5.509c-.018-.664.182-.8.818-.8,8.333.022,16.667.009,25,.027.552,0,.723-.134.713-.7q-.052-2.99,0-5.98c.008-.544-.122-.716-.7-.715q-13.911.028-27.823,0a4.368,4.368,0,0,0-3.247,1.315c-2.119,2.06-4.295,4.064-6.422,6.116-.39.376-.6.407-1.011.015-2.193-2.113-4.425-4.186-6.63-6.287a3.839,3.839,0,0,0-2.769-1.151q-14.114.018-28.226,0c-.483,0-.6.146-.594.608.023,2.016.033,4.032-.006,6.047-.012.592.141.744.739.742,8.378-.022,16.757-.009,25.135-.029.563,0,.659.191.653.689-.025,1.859-.045,3.719.007,5.577.019.678-.2.794-.826.793-8.333-.021-16.667-.009-25-.027-.559,0-.716.146-.706.706q.052,2.99,0,5.98c-.009.546.125.714.7.713q13.878-.029,27.756,0a4.441,4.441,0,0,0,3.315-1.314c2.152-2.091,4.362-4.122,6.526-6.2.344-.33.528-.306.857.01,2.132,2.047,4.309,4.049,6.421,6.115a4.542,4.542,0,0,0,3.422,1.39C693.416,286.231,697.942,286.259,702.467,286.259Z" transform="translate(0 0)" fill="#0d1a27"/><path d="M702.467,286.259c-4.525,0-9.051-.029-13.575.016a4.542,4.542,0,0,1-3.422-1.39c-2.113-2.067-4.289-4.068-6.421-6.115-.329-.316-.513-.34-.857-.01-2.164,2.078-4.375,4.109-6.526,6.2a4.441,4.441,0,0,1-3.315,1.314q-13.879-.044-27.756,0c-.573,0-.707-.167-.7-.713q.046-2.99,0-5.98c-.01-.56.147-.707.706-.706,8.333.018,16.667.006,25,.027.626,0,.845-.115.826-.793-.052-1.858-.031-3.718-.007-5.577.007-.5-.09-.691-.653-.689-8.378.02-16.757.007-25.135.029-.6,0-.751-.15-.739-.742.039-2.015.029-4.032.006-6.047-.005-.462.111-.608.594-.608q14.113.022,28.226,0a3.839,3.839,0,0,1,2.769,1.151c2.205,2.1,4.437,4.174,6.63,6.287.408.393.622.362,1.011-.015,2.127-2.053,4.3-4.056,6.422-6.116a4.368,4.368,0,0,1,3.247-1.315q13.912.04,27.823,0c.574,0,.7.171.7.715q-.045,2.99,0,5.98c.01.568-.161.7-.713.7-8.333-.017-16.667,0-25-.027-.636,0-.836.136-.818.8q.074,2.753,0,5.509c-.019.663.228.75.8.749q12.432-.024,24.866-.01c.957,0,.85-.112.852.867.005,1.949-.018,3.9.014,5.846.009.532-.141.673-.67.671C711.92,286.251,707.194,286.259,702.467,286.259Z" transform="translate(0 0)" fill="#0d1a27"/></g></svg>