<svg xmlns="http://www.w3.org/2000/svg" width="24.56" height="24.56" viewBox="0 0 24.56 24.56"><g transform="translate(-1250.834 -3843.335)"><path d="M20.528,2.835H9.811L2.834,9.812V20.445l6.921,6.949H20.416l6.977-6.977V9.756L20.528,2.835Zm4.745,16.634-5.805,5.805H10.76L4.955,19.5V10.761l5.8-5.777h8.819l5.693,5.721v8.763Z" transform="translate(1248 3840.5)" fill-rule="evenodd"/><path d="M32.276,35.593,30.8,32.579l-2.2,2.065v7.4l2.121,2.149v-7.2l1.842,4.1,2.093-5.47v11.47h2.344V29.621H34.509Zm6.356-5.972V47.092h2.679l5.079-5.051V38.356H42.483v2.121h1.451c.391-.056.419.391.139.726s-3.1,3.1-3.1,3.1V32.412l3.293,3.433v.837H46.39V34.728l-5.024-5.107Z" transform="translate(1225.623 3817.23)" fill-rule="evenodd"/></g></svg>