<svg xmlns="http://www.w3.org/2000/svg" width="19.74" height="16.517" viewBox="0 0 19.74 16.517"><g transform="translate(-938 -3836.05)"><path d="M239.989,183.6a.849.849,0,0,1-.106,0h-2.021v.47h2.056c.016,0,.137,0,.161,0a.671.671,0,0,0,.611-.693.66.66,0,0,0-.58-.685,1.545,1.545,0,0,0-.165-.008H238.6a.683.683,0,0,1-.149-.012.2.2,0,0,1-.145-.2.2.2,0,0,1,.149-.2.56.56,0,0,1,.141-.012h1.939V181.8h-1.97a1.308,1.308,0,0,0-.2.012.672.672,0,0,0-.008,1.328c.07.008.168.008.212.008h1.308a.662.662,0,0,1,.094,0,.216.216,0,0,1,.2.227A.219.219,0,0,1,239.989,183.6Z" transform="translate(709.514 3661.371)"/><path d="M142.189,183.6a.815.815,0,0,1-.1,0h-2.025v.47h2.056c.016,0,.137,0,.161,0a.671.671,0,0,0,.611-.693.66.66,0,0,0-.58-.685,1.545,1.545,0,0,0-.165-.008H140.8a.683.683,0,0,1-.149-.012.2.2,0,0,1-.145-.2.2.2,0,0,1,.149-.2.56.56,0,0,1,.141-.012h1.939V181.8h-1.97a1.308,1.308,0,0,0-.2.012.672.672,0,0,0-.008,1.328c.071.008.168.008.212.008h1.308a.662.662,0,0,1,.094,0,.226.226,0,0,1,.012.446Z" transform="translate(803.483 3661.371)"/><rect width="0.509" height="2.299" transform="translate(941.983 3843.155)"/><path d="M2.859,183.7v-2.3H2.35v1.716L.654,181.4H0v2.3H.509v-1.723L2.217,183.7Z" transform="translate(938 3661.755)"/><path d="M433.45,181.4v1.716l-1.7-1.716H431.1v2.3h.509v-1.723l1.7,1.723h.642v-2.3Z" transform="translate(523.785 3661.755)"/><path d="M328.234,181.4l-1.434,2.3h.619l.255-.411h1.672l.255.411h.615l-1.434-2.3Zm.85,1.453h-1.148l.576-.924Z" transform="translate(624 3661.755)"/><path d="M17.052,5.8a7.455,7.455,0,0,1,14.085,0l.008.024h2.244v-.27l-.932-.11A.91.91,0,0,1,31.6,4.8l-.039-.078a8.264,8.264,0,0,0-14.938.008l-.039.078a.91.91,0,0,1-.854.642l-.932.11v.27h2.24Z" transform="translate(923.78 3836.05)"/><path d="M31.241,272.8l-.008.023a7.427,7.427,0,0,1-7.042,5.006h0a7.427,7.427,0,0,1-7.042-5.009l-.008-.024H14.9v.27l.932.11a.91.91,0,0,1,.854.642l.039.078a8.274,8.274,0,0,0,7.469,4.731h0a8.277,8.277,0,0,0,7.469-4.728l.039-.078a.91.91,0,0,1,.854-.642l.932-.11v-.27Z" transform="translate(923.684 3573.935)"/></g></svg>