<svg xmlns="http://www.w3.org/2000/svg" width="21.965" height="24.21" viewBox="0 0 21.965 24.21"><path d="M10.977,0A64.187,64.187,0,0,1,21.888.943c.057,1.49.118,3.8.011,5.75a21.5,21.5,0,0,1-3.021,10.649,18.441,18.441,0,0,1-7.9,6.868,18.473,18.473,0,0,1-7.905-6.868A21.5,21.5,0,0,1,.05,6.693C-.057,4.739.008,2.432.061.943A64.263,64.263,0,0,1,10.977,0Zm0,.422A64.134,64.134,0,0,0,.472,1.3C.4,3.512.4,5.271.472,6.67A21.081,21.081,0,0,0,3.429,17.118a17.884,17.884,0,0,0,7.548,6.628,17.91,17.91,0,0,0,7.548-6.628A21.081,21.081,0,0,0,21.481,6.67c.076-1.4.076-3.158,0-5.37A63.753,63.753,0,0,0,10.977.422Zm-.03,12.728s.068.407.091.528a.259.259,0,0,1,0,.152c-.053.213-.308,1.326-.513,2.467l-.03.179c-.084.483-.156.958-.2,1.368a.973.973,0,0,0,.046.494c.175.581.817,2.1.939,2.379a.3.3,0,0,1,.027.1h0l.046.357a31.209,31.209,0,0,1-1.763-3.5.6.6,0,0,1,0-.448A33.644,33.644,0,0,1,10.946,13.15ZM9.316,9.992s.087.277.167.581l.03.106a4.41,4.41,0,0,1,.114.513.391.391,0,0,1-.03.262c-.1.27-.289.707-.49,1.155l-.087.19c-.247.543-.494,1.064-.616,1.292a1.109,1.109,0,0,1-.228.3c-.255.262-.745.753-1.049,1.03a.476.476,0,0,0-.163.315c-.034.209-.072.562-.084.745a.625.625,0,0,0,.106.4A24.865,24.865,0,0,0,9.81,20.481a.934.934,0,0,0,.141.106l.319.209a.051.051,0,0,1,.023.027h0l.087.156-.023-.011-.038-.019-.118-.057-.114-.057c-.175-.087-.38-.194-.49-.251a.72.72,0,0,1-.125-.084,23.641,23.641,0,0,1-2.953-3.519.656.656,0,0,1-.129-.505c.034-.391.087-.886.133-1.1a.625.625,0,0,1,.156-.323c.334-.388.745-.9,1.144-1.421l.141-.186a17.937,17.937,0,0,0,1.368-2.018.355.355,0,0,0,.053-.213,6.937,6.937,0,0,0-.1-.878.307.307,0,0,1,0-.061h0Zm4.975-.479.156.068a.386.386,0,0,1,.122.084,16.282,16.282,0,0,1,1.851,2.28.42.42,0,0,1,.057.163,11.875,11.875,0,0,1-.323,4.291.4.4,0,0,1-.182.266c-.369.277-.924.722-1.471,1.178l-.175.144c-.661.547-1.292,1.087-1.558,1.334a1.022,1.022,0,0,0-.175.209c-.125.205-.315.555-.41.73l-.027.049c-.019.034-.03.057-.03.057-.125-.274-.4-.935-.49-1.2a.351.351,0,0,1,0-.251,26.531,26.531,0,0,1,1.011-2.467h0v.118a.192.192,0,0,1-.008.049,18.617,18.617,0,0,0-.528,2.018.757.757,0,0,0,0,.277,5.533,5.533,0,0,0,.19.73,3.529,3.529,0,0,1,.175-.319.73.73,0,0,1,.137-.16c.346-.342.935-.87,1.547-1.4l.217-.186c.471-.4.943-.8,1.311-1.1a.367.367,0,0,0,.156-.277,17.03,17.03,0,0,0,.072-3,1.056,1.056,0,0,0-.171-.505A7.029,7.029,0,0,0,14.8,11.6a.418.418,0,0,1-.118-.22c-.122-.661-.4-1.862-.4-1.862ZM6.3,11.033a.33.33,0,0,1,.182-.008c.27.065.84.205,1.269.315a.309.309,0,0,1,.167.125h0l.1.156a.186.186,0,0,1,.008.179c-.08.152-.19.357-.308.57l-.091.16c-.163.293-.327.574-.422.722a.33.33,0,0,1-.205.179c-.426.148-.95.327-1.262.429a.1.1,0,0,0-.072.129c.023.129.1.57.122.7a.1.1,0,0,0,.118.072c.186-.034.677-.156.677-.156l-.232.213a.159.159,0,0,1-.053.034c-.133.046-.464.137-.562.16-.08.019-.129-.015-.152-.1,0,0-.141-.6-.19-.8a.766.766,0,0,0-.027-.087c-.038-.118-.129-.346-.179-.467a.1.1,0,0,1-.008-.046c0-.137.027-.445.027-.445s.3.281.448.384a.1.1,0,0,0,.091.019c.2-.053.661-.205.916-.3a.37.37,0,0,0,.148-.106,7.441,7.441,0,0,0,.779-1.178.222.222,0,0,0,.015-.163h0l-.042-.133a.179.179,0,0,0-.091-.1c-.445-.171-.8-.3-1.209-.437h0ZM15.119,7.2a.391.391,0,0,1,.3.008,16.152,16.152,0,0,1,2.7,1.573.223.223,0,0,1,.11.167,9.894,9.894,0,0,1,.122,2.873.547.547,0,0,1-.057.186,13.572,13.572,0,0,1-1.463,2.417h0v-.011c.008-.068.046-.464.046-.68a.079.079,0,0,1,.03-.061c.1-.076.232-.182.308-.251a.313.313,0,0,0,.076-.087,9.919,9.919,0,0,0,.749-1.505.757.757,0,0,0,.042-.331,13.707,13.707,0,0,0-.285-2,.339.339,0,0,0-.171-.217c-.122-.065-.361-.171-.908-.391a.729.729,0,0,1-.209-.125c-.357-.3-.916-.753-1.266-1.011a.443.443,0,0,0-.357-.076c-.255.057-.578.137-.76.186a.328.328,0,0,1-.148.011l-.122-.011-.068-.008c-.08-.008-.152-.011-.182-.015H13.6C14.192,7.575,14.762,7.335,15.119,7.2Zm-7.9,4.9a7.965,7.965,0,0,1-.574.832A.227.227,0,0,1,6.56,13c-.182.068-.486.171-.711.239h0Zm-2.451-.4-.11.756-.372-.437a.665.665,0,0,1,.483-.319Zm2-4.276-.1.125c-.008,0-.011.011-.015.015-.091.065-.464.353-.566.437a.1.1,0,0,0-.046.08c-.023.129-.061.369-.072.505a.084.084,0,0,1-.061.076c-.175.072-.38.144-.547.213a.38.38,0,0,0-.068.034c-.015.011-.239.213-.239.213s.483-.118.661-.16a.128.128,0,0,1,.1.011c.038.015.1.042.129.053a.169.169,0,0,0,.129,0c.2-.046.536-.125.715-.171a.586.586,0,0,0,.22-.1c.087-.061.3-.22.3-.22s0,.03-.008.046a.057.057,0,0,1-.015.03c-.046.053-.122.141-.16.179a.657.657,0,0,1-.251.171c-.509.213-1.376.54-2.026.768a.185.185,0,0,0-.091.061c-.034.034-.08.087-.08.087s.532.038.692.057A.224.224,0,0,1,5.5,10c.133.114.574.57.707.726,0,0-1.254.209-1.836.353a.17.17,0,0,0-.125.122c-.049.167-.16.711-.16.711a.382.382,0,0,1-.1-.046.462.462,0,0,1-.1-.084,5.294,5.294,0,0,1-.471-.585.126.126,0,0,1,0-.156c.118-.144.353-.41.486-.547a.375.375,0,0,0,.049-.076,2.384,2.384,0,0,0,.122-.388L4.082,10h0v0l0,0-.023.015-.106.068a.125.125,0,0,0-.057.061c-.023.046-.057.114-.087.163a.191.191,0,0,1-.046.049c-.167.129-.35.266-.483.357a.019.019,0,0,1-.027,0,1.417,1.417,0,0,1-.1-.114.076.076,0,0,1-.015-.049c0-.034,0-.091.008-.133s.019-.076.08-.141.144-.148.228-.228c.2-.167.692-.57,1.577-1.2a.456.456,0,0,0,.046-.042c.091-.125.357-.467.422-.551a.116.116,0,0,1,.03-.03,2.365,2.365,0,0,1,.262-.186c.236-.167.715-.452.981-.608Zm5.4-.281a.183.183,0,0,1,.11.015h0l.258.125a.08.08,0,0,1,.049.065c.034.148.08.346.106.509a.29.29,0,0,1-.038.2c-.106.186-.327.521-.448.7a.19.19,0,0,0-.023.137c.057.308.289,1.387.289,1.387h0l-.148-.133a.2.2,0,0,1-.061-.091c-.1-.3-.3-.943-.388-1.25a.153.153,0,0,1,.03-.144c.152-.186.376-.483.505-.669a.152.152,0,0,0,.027-.156c-.03-.061-.08-.156-.129-.239a.1.1,0,0,0-.061-.049h0L12.071,7.5a.162.162,0,0,0-.1,0c-.384.141-.9.338-1.212.471a.185.185,0,0,1-.122.011L10.156,7.9a.036.036,0,0,1-.023-.053h0l.156-.266a.162.162,0,0,1,.1-.072C10.885,7.388,11.543,7.259,12.166,7.149ZM6.674,8.38a.057.057,0,0,1,.057.034.287.287,0,0,1-.008.224.121.121,0,0,1-.076.061h0L6.4,8.753a.02.02,0,0,1-.027-.023h0L6.4,8.437A.044.044,0,0,1,6.435,8.4h0Zm2.82-1.87a.039.039,0,0,1,.034.057h0l-.6,1.041a.268.268,0,0,1-.156.125h0l-1.133.353a1.863,1.863,0,0,1-.38.072c-.251.019-1,.042-1,.042h0l.015-.034a.092.092,0,0,1,.038-.038h0l.353-.148a.176.176,0,0,0,.068-.049h0l.543-.673a.484.484,0,0,1,.106-.091,11.358,11.358,0,0,1,1.448-.623.459.459,0,0,1,.144-.023h0ZM8.886,5.3a29.6,29.6,0,0,1,4.557-.019.909.909,0,0,1,.266.065c.528.224,1.467.711,2.512,1.307a.789.789,0,0,1,.129.091c.277.243.977.962.977.962h0l-.22-.042a.276.276,0,0,1-.084-.034,16.637,16.637,0,0,0-1.63-.958.64.64,0,0,0-.205-.061c-.262-.027-.619-.053-.851-.061a.638.638,0,0,1-.3-.08c-.213-.11-.734-.346-.992-.445a.6.6,0,0,0-.277-.049c-.445.008-1.459.038-1.976.072a.251.251,0,0,1-.053,0h0L10.486,6c.7-.122,2.429-.274,3.143-.312h0l-.293-.1a.545.545,0,0,0-.175-.03c-.156,0-.5-.011-.95-.011H12.06c-.68,0-1.554.019-2.36.08a.625.625,0,0,0-.205.049c-.327.144-1.121.574-1.916,1.019L7.4,6.8c-.205.114-.41.228-.6.338,0,0,.1-.129.118-.152a.121.121,0,0,1,.046-.042c.03-.023.141-.091.251-.167l.08-.053c.065-.046.125-.084.16-.106L7.5,6.583c.239-.182.619-.5.844-.7a.642.642,0,0,0,.129-.156c.072-.118.152-.247.2-.315A.337.337,0,0,1,8.886,5.3ZM3.565,2.425c.308-.03.483.087.483.4h0V3c0,.319-.171.448-.483.483-.426.046-.855.091-1.281.144h0V4.1l-.27.034h0V2.6C2.532,2.539,3.048,2.478,3.565,2.425Zm14.328-.049c.68.065,1.361.144,2.041.228h0V2.85c-.293-.038-.589-.072-.882-.106h0V4.025c-.091-.011-.179-.019-.27-.03h0V2.714q-.445-.051-.889-.091h0Zm-11.307-.2v.247c-.559.034-1.121.076-1.68.122h0v.376c.5-.042,1-.08,1.494-.11h0v.247c-.5.03-1,.068-1.494.11h0V3.58c.559-.049,1.117-.087,1.68-.122h0v.247c-.646.038-1.3.087-1.942.144h0V2.322c.646-.061,1.292-.106,1.942-.148Zm8.707.418c0-.342.171-.414.551-.388.334.023.673.049,1.007.076s.551.122.551.471h0v.684c0,.342-.19.407-.551.376-.334-.027-.673-.053-1.007-.076-.365-.023-.551-.1-.551-.46h0Zm-2.6-.532c.65.015,1.3.038,1.946.072h0v.247c-.559-.03-1.121-.049-1.68-.065h0v.376q.747.023,1.494.057h0v.247q-.747-.034-1.494-.057h0v.414c.562.015,1.121.038,1.68.068h0v.247c-.65-.034-1.3-.057-1.946-.072h0Zm-3.375,0V3.166c0,.35-.182.426-.555.437-.323.011-.642.023-.965.038-.342.015-.551-.049-.551-.4h0V2.136h0l.262-.015V3.272a.128.128,0,0,0,.141.122c.422-.019.844-.034,1.266-.049a.135.135,0,0,0,.133-.133h0V2.064c.091,0,.182,0,.27,0Zm6.381.384a.127.127,0,0,0-.141.129h0v.756a.155.155,0,0,0,.141.148c.437.03.87.061,1.307.1a.135.135,0,0,0,.141-.129h0V2.691A.159.159,0,0,0,17,2.539C16.567,2.5,16.134,2.47,15.7,2.444Zm-5.218-.4c.483,0,.965,0,1.448,0h0v.247c-.517-.008-1.034-.008-1.551,0a.144.144,0,0,0-.141.133h0v.764a.145.145,0,0,0,.141.137c.464,0,.927,0,1.391,0h0V2.911c-.27,0-.536,0-.806,0h0V2.66c.357,0,.715,0,1.068.008h0v.9c-.5-.008-1-.008-1.5-.008-.365,0-.555-.061-.555-.418h0V2.486C9.977,2.155,10.144,2.045,10.479,2.041Zm-6.814.623H3.645c-.452.046-.908.1-1.361.152h0v.562c.452-.057.9-.106,1.361-.152a.161.161,0,0,0,.141-.137h0V2.782a.124.124,0,0,0-.141-.114Z" transform="translate(0.007)" fill-rule="evenodd"/></svg>